Coordinates
version=1
nRows=9
nColumns=24
inDegrees=yes

Units are S.I. units (second, meters, Newtons, ...)
Angles are in degrees.

endheader
time	pelvis_tilt	pelvis_list	pelvis_rotation	pelvis_tx	pelvis_ty	pelvis_tz	hip_flexion_r	hip_adduction_r	hip_rotation_r	knee_angle_r	ankle_angle_r	subtalar_angle_r	mtp_angle_r	hip_flexion_l	hip_adduction_l	hip_rotation_l	knee_angle_l	ankle_angle_l	subtalar_angle_l	mtp_angle_l	lumbar_extension	lumbar_bending	lumbar_rotation
      0.44200000	     -1.10298263	      3.43441228	     -2.19716778	     -0.78913697	      1.05683608	      0.30800651	     22.67867848	     -0.03147967	     -6.22466797	     -2.66294762	      4.16038410	     -2.71881551	     -0.06251014	     -8.02467048	      7.99564426	     -2.30582348	    -12.33079486	     13.08228622	      0.20386854	      0.00418959	      1.06491518	     -1.05970018	     -1.55007363
      0.44616667	     -1.07077182	      3.42507942	     -2.21456468	     -0.78322994	      1.05654992	      0.30809628	     22.59662265	      0.01329666	     -6.15623153	     -2.93140815	      4.15161563	     -2.69433520	     -0.06452851	     -8.06859530	      7.94643029	     -2.38979906	    -13.00906658	     13.03178800	      0.19450227	     -0.01210678	      1.13021198	     -1.01363824	     -1.58382595
      0.45033333	     -1.04296337	      3.41549478	     -2.41798042	     -0.77719995	      1.05618333	      0.30863017	     22.55760669	      0.15088348	     -5.96296155	     -3.32271367	      4.28325225	     -2.60129364	     -0.07751740	     -8.07716071	      7.88935575	     -2.94832180	    -13.73468078	     12.96271950	      0.70934771	     -0.11538578	      1.15304061	     -1.04308988	     -1.78653095
      0.45450000	     -1.02876542	      3.38085025	     -2.40268975	     -0.77115480	      1.05592796	      0.30887242	     22.47159192	      0.22990230	     -5.84555580	     -3.65972838	      4.29309145	     -2.58006583	     -0.08289246	     -8.03313115	      7.76654592	     -3.22823189	    -14.56916853	     12.92887685	      0.97473794	     -0.16151866	      1.08052455	     -1.02881305	     -1.84015979
      0.45866667	     -0.93430581	      3.36326001	     -2.52225034	     -0.76511404	      1.05572977	      0.30938496	     22.30892311	      0.34406545	     -5.48124921	     -4.03848156	      4.30857291	     -2.65018785	     -0.09482931	     -8.05825895	      7.66434444	     -3.67931288	    -15.42539044	     12.97224762	      1.88458605	     -0.27246297	      1.13053682	     -1.06776743	     -1.91676939
      0.46283333	     -0.88772288	      3.34825131	     -2.54329068	     -0.75908393	      1.05551902	      0.30957137	     22.21603427	      0.39915839	     -5.40351018	     -4.49007053	      4.24768970	     -2.68573009	     -0.09654064	     -7.99430622	      7.56614704	     -3.96769468	    -16.35170856	     12.85322181	      2.05287600	     -0.29679887	      1.05472459	     -1.00256895	     -1.93786205
      0.46700000	     -0.76838802	      3.32101348	     -2.67007000	     -0.75300929	      1.05539661	      0.31015171	     22.00980470	      0.52664526	     -4.95576905	     -4.88671591	      4.12190725	     -2.85692619	     -0.09626185	     -7.98597182	      7.43043291	     -4.47407557	    -17.31333475	     12.67880198	      2.92706233	     -0.34722150	      1.05726709	     -1.04860133	     -1.94497103
      0.47116667	     -0.66710354	      3.31365870	     -2.64403535	     -0.74697819	      1.05531300	      0.31015303	     21.83612601	      0.53260466	     -4.85563337	     -5.34482295	      4.05938569	     -2.85021380	     -0.09503467	     -7.92532826	      7.33646673	     -4.61717718	    -18.35015695	     12.57285395	      2.96627556	     -0.34996328	      1.10043388	     -0.95796682	     -1.95086045
      0.47533333	     -0.60386826	      3.26890415	     -2.79506906	     -0.74083510	      1.05513955	      0.31098976	     21.68012956	      0.71194012	     -4.36412906	     -5.75789224	      3.76589808	     -3.16136577	     -0.08576998	     -7.77955794	      7.13373365	     -5.31108007	    -19.45465754	     12.18226862	      4.01232111	     -0.34821085	      0.96681432	     -1.03074099	     -1.94704967
